<svg xmlns="http://www.w3.org/2000/svg" viewBox="0 0 512 512">
  <rect width="512" height="512" rx="96" fill="#6B3F1A"/>
  <!-- Steam wisps -->
  <path d="M176 152 Q190 128 176 104" stroke="#D4A96A" stroke-width="12" fill="none" stroke-linecap="round"/>
  <path d="M256 140 Q270 116 256 92" stroke="#D4A96A" stroke-width="12" fill="none" stroke-linecap="round"/>
  <path d="M336 152 Q350 128 336 104" stroke="#D4A96A" stroke-width="12" fill="none" stroke-linecap="round"/>
  <!-- Cup body -->
  <path d="M136 192 L164 368 Q168 392 200 392 L312 392 Q344 392 348 368 L376 192 Z" fill="#FDF6E9"/>
  <!-- Coffee fill -->
  <path d="M148 230 L170 368 Q174 388 200 388 L312 388 Q338 388 342 368 L364 230 Z" fill="#C27D38"/>
  <!-- Handle -->
  <path d="M376 240 Q430 240 430 300 Q430 360 376 360" stroke="#FDF6E9" stroke-width="22" fill="none" stroke-linecap="round"/>
  <!-- Saucer -->
  <ellipse cx="256" cy="400" rx="148" ry="18" fill="#C27D38" opacity="0.7"/>
  <!-- Passport stamp ring -->
  <circle cx="256" cy="300" r="220" fill="none" stroke="#FDF6E9" stroke-width="8" stroke-dasharray="16 12" opacity="0.3"/>
</svg>
